<?xml version="1.0" encoding="UTF-8"?>
<svg width="1200pt" height="1200pt" version="1.1" viewBox="0 0 1200 1200" xmlns="http://www.w3.org/2000/svg">
 <path d="m52.953 987.9c-3.2031-1.9766-5.3477-5.2891-5.8398-9.0195-4.3008-29.379-4.3008-59.227 0-88.605 10.98-70.801 43.223-315.91 71.445-381.57 1.9258-4.4375 0.89844-3.2578 0.89844-3.2578s-11.75-4.0195-19.953-6.8906c-8.1992-2.875-1.25-0.31641-12.852-4.6719l-74.762-26.938v-0.003907c-4.6523-1.7461-8.3906-5.3203-10.344-9.8906-1.9531-4.5703-1.9531-9.7422 0-14.312 1.9531-4.5703 5.6914-8.1445 10.344-9.8945l581.34-232.84c4.2969-1.625 9.0391-1.625 13.34 0l581.94 231.88c4.6641 1.8477 8.3594 5.5352 10.211 10.195 1.8555 4.6602 1.7031 9.8789-0.41797 14.422-2.1211 4.5469-6.0234 8.0156-10.785 9.5859-134.18 44.871-509.49 168.93-578.82 189.98-5.3633 1.6367-361.59-107.14-404.61-120.8-3.2461-1.0039-11.68-4.6719-29.555-12.535-36.281 107.9-2.2422 394.73-16.355 433.46v0.003906c-1.3086 3.3906-1.5703 7.0977-0.74609 10.641 3.5039 15.293 0.875 19.672-7.0078 23.363h-0.003906c-30.871 15.426-67.379 14.582-97.504-2.2539zm121.65-465.41v-0.11719zm0.082031-0.28125m0.09375-0.30469v-0.070312zm0.09375-0.30469v-0.058593zm0-0.10547m0-0.11719 0.058594-0.19922zm0.082031-0.25781m357.72 397.3c-59.34-3.9414-117.69-17.219-172.89-39.34-32.801-12.02-62.074-32.051-85.16-58.27-12.125-14.242-18.836-32.309-18.945-51.012v-169.38c-0.10156-1.7109-0.10156-3.4219 0-5.1289l40.523 12.535c98.996 30.371 197.96 60.82 296.88 91.352v-0.003907c4.3633 1.2188 8.9766 1.2188 13.34 0l232.08-71.434 97.75-30.195c2.9531-0.80469 5.9531-1.4336 8.9844-1.8789v170.06c0 35.043-17.824 59.391-43.77 79.074-42.895 32.578-92.773 48.617-144.39 60.148l-0.003907-0.003907c-51.332 11.09-103.7 16.684-156.22 16.684-22.754 0-45.48-1.0664-68.172-3.2031z"/>
</svg>
