<?xml version="1.0" encoding="UTF-8"?>
<svg width="1200pt" height="1200pt" version="1.1" viewBox="0 0 1200 1200" xmlns="http://www.w3.org/2000/svg">
 <path d="m1062 56.25h-924c-42.516 0.046875-76.969 34.5-77.016 77.016v733.4c0 20.438 8.1094 40.031 22.547 54.469s34.031 22.547 54.469 22.547h225.98l56.203-91.266-0.5625-1.125h-209.06c-32.203-0.046875-58.266-26.156-58.312-58.359v-585.94c0.046875-32.203 26.109-58.312 58.312-58.359h778.87c32.203 0.046875 58.266 26.156 58.312 58.359v585.98-0.046875c-0.046875 32.203-26.109 58.312-58.312 58.359h-207.14c-0.375 1.0312-0.79687 2.0625-1.3594 3.0469l55.078 89.344h225.98c20.438 0 40.031-8.1094 54.469-22.547s22.547-34.031 22.547-54.469v-733.4c-0.046874-42.516-34.5-76.969-77.016-77.016z"/>
 <path d="m280.82 187.18h-70.266c-5.25-0.046875-10.312 2.0625-14.016 5.7656-3.75 3.75-5.8125 8.7656-5.8125 14.062v97.406c56.297-9.1875 95.719-60.516 90.094-117.23z"/>
 <path d="m1009.3 304.4v-97.406c0-5.2969-2.0625-10.312-5.8125-14.062-3.7031-3.7031-8.7656-5.8125-14.016-5.7656h-70.266c-5.625 56.719 33.797 108.05 90.094 117.23z"/>
 <path d="m190.74 695.76v97.219-0.046875c0 5.2969 2.0625 10.312 5.8125 14.062 3.7031 3.7031 8.7656 5.8125 14.016 5.7656h70.266c5.5781-56.672-33.891-107.91-90.094-117z"/>
 <path d="m919.18 812.76h70.266c5.25 0.046875 10.312-2.0625 14.016-5.7656 3.75-3.75 5.8125-8.7656 5.8125-14.062v-97.172c-56.203 9.0938-95.672 60.328-90.094 117z"/>
 <path d="m600 740.39c-24.047 0.28125-43.406 19.875-43.406 43.922s19.359 43.594 43.406 43.875c24.047-0.28125 43.406-19.828 43.406-43.875s-19.359-43.641-43.406-43.922z"/>
 <path d="m439.08 889.6s-90.938 147.61-94.312 153.24h-0.046875c-3.375 5.7656-3.1406 12.984 0.65625 18.516s10.453 8.3906 17.062 7.2656l79.125-13.688 23.484 76.828c2.1094 6.4219 7.6875 11.016 14.391 11.859 6.6562 0.79687 13.219-2.2969 16.781-8.0156l97.031-158.26v0.046875c-12.422-0.51562-24.797-2.2031-36.938-5.0156-48.234-11.578-90.188-41.203-117.23-82.781z"/>
 <path d="m600.94 626.63c-87.047 0.046875-157.6 70.594-157.64 157.69-3.1875 107.81 117.28 189.61 216.19 146.29 159.56-65.812 114.23-301.97-58.547-303.98zm-0.9375 235.82c-42.984-0.32812-77.672-35.25-77.625-78.234 0-42.984 34.641-77.953 77.625-78.281 42.984 0.32812 77.672 35.297 77.672 78.281s-34.688 77.906-77.672 78.234z"/>
 <path d="m761.9 891.14c-34.781 52.125-92.531 84.234-155.16 86.25l97.031 158.26v-0.046875c3.5625 5.7188 10.125 8.8125 16.781 8.0156 6.7031-0.84375 12.281-5.4375 14.391-11.859l23.484-76.828 79.125 13.688c6.6094 1.125 13.266-1.6875 17.062-7.2188 3.7969-5.5312 4.0312-12.797 0.65625-18.562 0 0-88.922-144.66-93.375-151.69z"/>
 <path d="m600.98 591c56.156 0.23438 109.45 24.797 146.11 67.312 36.656 42.562 53.109 98.906 45 154.45h88.359c-0.1875-3.4688-0.375-6.9375-0.375-10.594v0.046875c-0.046875-74.203 55.5-136.69 129.19-145.36v-313.6c-77.719-9.3281-134.39-78.047-128.76-156.1h-560.95c0.1875 3.4688 0.375 7.125 0.375 10.594v-0.046875c0.046875 74.25-55.453 136.78-129.19 145.55v313.6c73.688 8.6719 129.24 71.156 129.19 145.36 0 3.6562-0.1875 7.125-0.375 10.594h90.281v-0.046875c-8.1094-55.547 8.2969-111.94 44.953-154.45 36.703-42.562 90-67.125 146.21-67.312zm327.79-215.21c10.547 0.1875 18.984 8.7188 18.984 19.266 0 10.5-8.4375 19.078-18.984 19.219h-197.68c-10.547-0.09375-19.031-8.6719-19.031-19.219s8.4844-19.125 19.031-19.266zm-518.58-128.76h379.6c10.547 0.14062 18.984 8.7188 18.984 19.219 0 10.547-8.4375 19.125-18.984 19.266h-379.6c-10.547-0.14062-18.984-8.7188-18.984-19.266 0-10.5 8.4375-19.078 18.984-19.219zm-138.98 167.29v-0.046875c-10.547-0.14062-18.984-8.7188-18.984-19.219 0-10.547 8.4375-19.078 18.984-19.266h328.78c10.641 0 19.266 8.625 19.266 19.266s-8.625 19.219-19.266 19.219zm119.72 109.55v-0.046875c0-5.1094 2.0156-9.9844 5.625-13.641 3.6094-3.6094 8.5312-5.625 13.641-5.5781h379.6c10.641 0 19.266 8.5781 19.266 19.219s-8.625 19.266-19.266 19.266h-379.6c-10.641-0.046875-19.219-8.625-19.266-19.266z"/>
</svg>
