<?xml version="1.0" encoding="UTF-8"?>
<svg width="1200pt" height="1200pt" version="1.1" viewBox="0 0 1200 1200" xmlns="http://www.w3.org/2000/svg">
 <path d="m1134 308.4c0-27.051-10.746-52.996-29.875-72.125-19.129-19.129-45.074-29.875-72.125-29.875h-864c-27.051 0-52.996 10.746-72.125 29.875-19.129 19.129-29.875 45.074-29.875 72.125v583.2c0 27.051 10.746 52.996 29.875 72.125 19.129 19.129 45.074 29.875 72.125 29.875h864c27.051 0 52.996-10.746 72.125-29.875 19.129-19.129 29.875-45.074 29.875-72.125zm-320.4 292.8 260.4-205.2v492zm-645.6-334.8h864c11.141 0 21.82 4.4258 29.699 12.305 7.875 7.875 12.301 18.559 12.301 29.695v12l-447.6 351.6c-7.375 5.7422-16.453 8.8594-25.797 8.8594-9.3477 0-18.426-3.1172-25.801-8.8594l-448.8-354v-9.6016c0-11.137 4.4258-21.82 12.301-29.695 7.8789-7.8789 18.559-12.305 29.699-12.305zm-42 620.4v-492l254.4 200.4zm42 46.801h-3.6016l262.8-300 109.2 86.398c17.969 14.109 40.156 21.781 63 21.781 22.848 0 45.035-7.6719 63-21.781l103.2-80.398 268.8 294z"/>
</svg>
