<?xml version="1.0" encoding="UTF-8"?>
<svg width="1200pt" height="1200pt" version="1.1" viewBox="0 0 1200 1200" xmlns="http://www.w3.org/2000/svg">
 <path d="m734.41 456.07 49.285-49.285 49.281 49.281-49.285 49.285z"/>
 <path d="m181.04 1009.4 533.48-533.48 49.285 49.285-533.48 533.48z"/>
 <path d="m994.39 692.18c-21.277-5.5039-40.023-18.133-53.117-35.777-13.098-17.648-19.754-39.246-18.859-61.203 0.27344-7.1719-4.8945-13.395-11.992-14.445-7.0977-1.0508-13.848 3.4102-15.664 10.348-5.5039 21.277-18.129 40.023-35.777 53.121-17.645 13.098-39.246 19.75-61.203 18.855-7.168-0.27344-13.395 4.8945-14.445 11.992-1.0508 7.0977 3.4102 13.848 10.352 15.664 21.273 5.5039 40.02 18.133 53.117 35.777 13.094 17.648 19.75 39.25 18.855 61.207-0.26953 7.168 4.8984 13.391 11.996 14.441 7.0938 1.0469 13.844-3.4102 15.66-10.352 5.4961-21.277 18.125-40.027 35.773-53.125 17.648-13.098 39.254-19.75 61.211-18.848 7.168 0.26953 13.391-4.8984 14.441-11.996 1.0508-7.0938-3.4102-13.844-10.348-15.66z"/>
 <path d="m996.92 182.24c-12.867 8.9453-28.414 13.215-44.047 12.094-15.633-1.1211-30.41-7.5664-41.871-18.258-5.2617-4.8672-13.34-5-18.758-0.30859-5.418 4.6914-6.4375 12.707-2.3711 18.609 8.9492 12.867 13.215 28.414 12.094 44.047-1.1211 15.633-7.5664 30.41-18.258 41.871-4.8633 5.2617-4.9922 13.336-0.30469 18.75 4.6914 5.418 12.703 6.4414 18.605 2.3789 12.867-8.9453 28.414-13.215 44.047-12.094 15.633 1.1211 30.41 7.5664 41.871 18.258 5.2617 4.8633 13.336 4.9922 18.754 0.30078 5.4141-4.6875 6.4375-12.699 2.375-18.602-8.9453-12.867-13.215-28.414-12.094-44.047 1.1211-15.637 7.5664-30.414 18.258-41.871 4.8633-5.2617 4.9922-13.34 0.30469-18.754-4.6914-5.4141-12.703-6.4375-18.605-2.375z"/>
 <path d="m428.6 235.55c26.258 14.727 46.676 38.008 57.852 65.957 11.18 27.953 12.445 58.891 3.5859 87.66-2.082 6.8594 1.3242 14.188 7.9141 17.012 6.5859 2.8242 14.246 0.24219 17.777-5.9961 14.727-26.254 38.004-46.672 65.957-57.852s58.891-12.441 87.66-3.582c6.8594 2.082 14.188-1.3281 17.012-7.9141 2.8242-6.5859 0.24219-14.246-5.9961-17.777-26.254-14.727-46.672-38.008-57.852-65.957-11.18-27.953-12.445-58.891-3.5859-87.664 2.082-6.8594-1.3242-14.184-7.9141-17.012-6.5859-2.8242-14.246-0.24219-17.777 5.9961-14.727 26.254-38.004 46.672-65.957 57.852-27.949 11.18-58.887 12.441-87.66 3.582-6.8555-2.082-14.184 1.3281-17.008 7.9141-2.8242 6.5898-0.24219 14.246 5.9922 17.777z"/>
</svg>
