<?xml version="1.0" encoding="UTF-8"?>
<svg width="1200pt" height="1200pt" version="1.1" viewBox="0 0 1200 1200" xmlns="http://www.w3.org/2000/svg">
 <path d="m810.89 1137.8c-65.016 0-130.13-18.984-186.84-57.375-96.938-65.578-190.13-143.02-276.89-230.16-86.859-87.141-163.82-180.61-228.84-277.69-81.422-121.6-73.688-280.36 19.359-395.16l51.984-64.125c24.469-30.188 60.797-48.703 99.703-50.625 39.188-2.25 77.016 12.656 104.44 40.219l97.219 97.641c25.828 25.922 39.984 60.328 39.844 96.938-0.14063 36.562-14.578 70.922-40.688 96.609l-25.734 25.5c-21.984 21.703-24.609 55.781-6.3281 81.047 66.984 92.812 147.98 174.14 240.66 241.6 25.547 18.562 59.859 16.172 81.891-5.5781l25.828-25.5c53.672-52.969 140.72-52.734 193.92 0.84375l97.266 97.641c27.469 27.516 41.906 65.625 39.609 104.44s-21.188 75-51.75 99.188l-64.875 51.234c-61.688 48.703-135.71 73.312-209.72 73.312zm-514.36-1000.4c-1.125 0-2.2031 0-3.3281 0.09375-17.953 0.89062-34.031 9.0938-45.281 22.969l-52.031 64.172c-72.188 89.062-78.328 212.11-15.281 306.19 62.344 93 136.22 182.72 219.66 266.44 83.438 83.719 172.82 158.11 265.78 221.02 94.078 63.562 217.97 58.594 308.11-12.703l64.875-51.234c14.016-11.062 22.312-26.953 23.391-44.719 1.0312-17.719-5.3438-34.453-17.859-47.062l-97.266-97.641c-24.234-24.328-63.797-24.375-88.125-0.375l-25.828 25.5c-48.281 47.719-123.42 53.156-178.78 12.797-99.047-72.141-185.63-159.05-257.26-258.24-40.078-55.5-34.031-130.5 14.438-178.36l25.734-25.453h0.046875c11.766-11.672 18.281-27.141 18.375-43.594 0.09375-16.5-6.3281-31.969-17.953-43.688l-97.266-97.641c-11.859-11.906-27.422-18.375-44.109-18.375z"/>
</svg>
