<?xml version="1.0" encoding="UTF-8"?>
<svg width="1200pt" height="1200pt" version="1.1" viewBox="0 0 1200 1200" xmlns="http://www.w3.org/2000/svg">
 <path d="m323.69 205.86c73.34-73.168 172.71-114.26 276.3-114.26 103.6 0 202.96 41.09 276.3 114.26 145.96 145.97 145.07 379.36-2.1562 554.97l-274.14 327.04-274.16-327.05c-147.21-175.61-148.1-409.03-2.1562-554.97zm-53.473 601.59 301.93 360.22h0.003906c6.8945 8.2305 17.078 12.984 27.812 12.984s20.918-4.7539 27.812-12.984l301.93-360.22c78.801-92.227 123.73-208.61 127.33-329.86 1.4297-59.805-9.3008-119.28-31.547-174.81-22.25-55.531-55.547-105.96-97.875-148.23-87.055-86.586-204.84-135.19-327.62-135.19s-240.57 48.602-327.62 135.19c-42.344 42.266-75.652 92.695-97.91 148.23-22.262 55.531-33 115.01-31.574 174.82 3.6016 121.25 48.527 237.63 127.33 329.86zm329.78-479.3c-40.039 0-78.438 15.906-106.75 44.219s-44.219 66.711-44.219 106.75 15.906 78.438 44.219 106.75 66.711 44.219 106.75 44.219 78.438-15.906 106.75-44.219 44.219-66.711 44.219-106.75c-0.054688-40.023-15.98-78.391-44.277-106.69-28.301-28.297-66.668-44.223-106.69-44.277zm0 374.59c59.301 0 116.17-23.555 158.1-65.484 41.93-41.934 65.484-98.801 65.484-158.1 0-59.301-23.555-116.17-65.484-158.1-41.934-41.93-98.801-65.484-158.1-65.484s-116.17 23.555-158.1 65.484c-41.93 41.934-65.484 98.801-65.484 158.1 0.066407 59.277 23.645 116.11 65.562 158.02 41.914 41.918 98.746 65.496 158.02 65.562z" fill-rule="evenodd"/>
</svg>
