<?xml version="1.0" encoding="UTF-8"?>
<svg width="1200pt" height="1200pt" version="1.1" viewBox="0 0 1200 1200" xmlns="http://www.w3.org/2000/svg">
 <path d="m99.984 650.02h999.98v300c0 82.734-67.266 150-150 150h-699.98c-82.734 0-150-67.266-150-150zm1e3 -200.02v99.984h-1e3v-99.984c0-82.734 67.266-150 150-150h50.016v-50.016c0-82.734 67.266-150 150-150h300c82.734 0 150 67.266 150 150v50.016h50.016c82.688 0 150 67.266 150 150zm-300-200.02c0-27.609-22.406-50.016-50.016-50.016l-300 0.046875c-27.609 0-50.016 22.406-50.016 49.969v50.016h399.98z"/>
</svg>
