<?xml version="1.0" encoding="UTF-8"?>
<svg width="1200pt" height="1200pt" version="1.1" viewBox="0 0 1200 1200" xmlns="http://www.w3.org/2000/svg">
 <path d="m1026.4 589.46-115.88 115.91c-19.836 19.801-52.238 19.836-72.113 0-19.875-19.875-19.875-52.273 0-72.148l115.88-115.91c36.449-36.414 56.551-84.602 56.586-135.71 0-47.926-17.398-93.711-48.977-128.89-33.148-36.938-80.398-58.051-133.01-59.477-1.9453-0.039062-3.8594-0.074219-5.8086-0.074219-56.477 0-111.3 22.539-151.12 62.324l-105.64 105.64c-19.875 19.875-52.238 19.836-72.148 0-9.6016-9.6367-14.926-22.461-14.926-36.074s5.3242-26.438 14.926-36.074l105.64-105.64c60.824-60.789 145.73-94.199 231.75-92.062 80.926 2.2109 154.12 35.289 206.18 93.188 48.414 53.926 75.074 123.98 75.074 197.1-0.003906 78.371-30.676 152.13-86.402 207.89z"/>
 <path d="m705.26 910.57-106.31 106.35c-60.637 60.637-144.11 94.012-231.15 91.762-80.738-2.2109-153.79-35.324-205.69-93.262-48.301-53.887-74.887-123.79-74.887-196.95-0.71094-78.301 29.773-152.29 85.875-208.35l115.88-115.88c9.6367-9.6367 22.426-14.926 36.039-14.926s26.438 5.3242 36.074 14.926c9.6016 9.6367 14.926 22.461 14.926 36.074s-5.3242 26.438-14.926 36.074l-115.88 115.88c-36.562 36.562-56.438 84.824-55.988 135.71 0 48.262 17.363 94.238 48.863 129.38 33.039 36.863 80.137 57.938 132.52 59.363 57.562 0.9375 115.27-21 156.26-61.988l106.31-106.31c19.801-19.836 52.199-19.875 72.113 0 19.836 19.914 19.836 52.277-0.039062 72.152z"/>
 <path d="m372.07 755.62 383.48-383.48c9.9375-9.9375 22.988-14.887 36.039-14.887 13.051 0 26.102 4.9883 36.039 14.887 19.875 19.875 19.875 52.273 0 72.148l-383.44 383.48c-19.273 19.273-52.836 19.273-72.113 0-9.6016-9.6367-14.926-22.461-14.926-36.074s5.3281-26.438 14.926-36.074z"/>
</svg>
