<?xml version="1.0" encoding="UTF-8"?>
<svg width="1200pt" height="1200pt" version="1.1" viewBox="0 0 1200 1200" xmlns="http://www.w3.org/2000/svg">
 <path d="m320.39 358.17c-20.867 0-37.785 16.918-37.785 37.785 0 20.867 16.918 37.785 37.785 37.785h559.23c20.867 0 37.785-16.918 37.785-37.785 0-20.867-16.918-37.785-37.785-37.785zm0 204.04c-20.867 0-37.785 16.918-37.785 37.785s16.918 37.785 37.785 37.785h559.23c20.867 0 37.785-16.918 37.785-37.785 0-20.871-16.918-37.785-37.785-37.785zm0 204.04c-20.867 0-37.785 16.918-37.785 37.785 0 20.867 16.918 37.785 37.785 37.785h559.23c20.867 0 37.785-16.918 37.785-37.785 0-20.867-16.918-37.785-37.785-37.785z"/>
</svg>
